<svg width="3000" height="3000" viewBox="0 0 3000 3000" fill="none" xmlns="http://www.w3.org/2000/svg">
<path d="M2220.1 821.9C2224.4 824.3 2220.5 830.8 2216.3 828.5C2210.1 825.1 2203.9 821.6 2197.8 818C2198.2 815.3 2198.6 812.6 2199 809.9C2206 814 2213.1 818 2220.1 821.9Z" fill="black"/>
<path d="M2212 1302.1C2212.1 1301.5 2212.1 1301.3 2212.1 1301.3C2212.1 1301.4 2211.9 1302.7 2211.9 1302.8C2211.9 1302.8 2211.9 1302.6 2211.9 1302.4C2212 1302.4 2212 1302.3 2212 1302.1C2212 1302.1 2212 1302.2 2212 1302.1Z" fill="black"/>
<path d="M2182.1 332.8V348C2181.6 348 2181 348 2180.5 348C2177.4 348 2174.3 348 2171.2 348.1C2169.3 342.1 2168.1 338.7 2167.9 338.1V338L2176.7 334.8L2182.1 332.8Z" fill="black"/>
<path d="M1998.6 1594.1C1995.3 1582.7 1983.1 1581.2 1975.3 1586L1974.8 1585.2C2010 1563.7 2043.5 1539.7 2074.8 1513C2118.9 1475.3 2157.9 1433 2185.1 1382.1C2196.4 1360.8 2204.2 1341.4 2209.5 1316.7C2210.2 1313.5 2210.8 1310.3 2211.3 1307.1C2211.5 1305.7 2211.7 1304.4 2212 1303C2212 1302.9 2212 1302.8 2212.1 1302.7C2212.1 1302.9 2212.1 1303.1 2212.1 1303.1C2212.1 1302.9 2212.3 1301.7 2212.3 1301.6C2212.3 1301.6 2212.3 1301.8 2212.2 1302.4C2212.2 1302.2 2212.2 1302 2212.3 1301.7C2212.9 1296.7 2213.3 1291.7 2213.5 1286.7C2214.2 1270.1 2213.1 1253.2 2211.2 1236.7C2203.4 1168.2 2177.9 1102 2146.6 1040.6L2147.5 1040.2C2149.2 1043.7 2152.3 1046.5 2156.2 1047.8C2164.2 1050.5 2172.8 1046.2 2175.5 1038.3C2176 1036.7 2176.6 1035.1 2177.1 1033.5C2190.9 1061.4 2203.2 1089.9 2213.6 1119.2C2227.1 1156.9 2236.8 1195.8 2241.5 1235.5C2244.9 1264.9 2245.3 1294.4 2239.2 1323.5C2228.2 1376.5 2199.1 1424.3 2165 1465.6C2122.9 1516.6 2070.7 1559 2015.5 1595.1C2010.9 1598.1 2006.3 1601.1 2001.6 1604C2000.5 1600.5 1999.5 1597.3 1998.6 1594.1Z" fill="black"/>
<path d="M2176.9 1033.2C2176.4 1034.8 2175.8 1036.4 2175.3 1038C2172.6 1046 2163.9 1050.2 2156 1047.5C2152 1046.1 2149 1043.3 2147.3 1039.9C2145.6 1036.4 2145.2 1032.2 2146.5 1028.2C2150.2 1017.2 2153.8 1006.2 2157.2 995.4C2164 1007.9 2170.6 1020.5 2176.9 1033.2Z" fill="black"/>
<path d="M2176.6 334.9L2167.9 338.1L2176.6 334.9Z" fill="black"/>
<path d="M2105.2 749.7C2135.6 771.1 2166.9 791.2 2199 809.8C2198.6 812.5 2198.2 815.2 2197.8 817.9C2165.7 799.3 2134.3 779.4 2104 758.1C2104.1 757.6 2104.2 757.1 2104.2 756.5C2104.6 754.3 2104.9 752 2105.2 749.7Z" fill="#C3C1C1"/>
<path d="M2077.1 729.4C2086.4 736.3 2095.7 743.1 2105.2 749.8C2104.9 752.1 2104.5 754.3 2104.2 756.6C2104.1 757.1 2104 757.6 2104 758.2C2094.6 751.6 2085.3 744.9 2076.1 738.1C2076.4 735.1 2076.8 732.2 2077.1 729.4Z" fill="black"/>
<path d="M2104 758.2C2098.4 794.9 2089.5 832.2 2075.9 868.2C2068.7 858.2 2061.5 848.4 2054.1 838.6C2063.4 810.3 2069.8 781.1 2074.2 752.1C2074.9 747.4 2075.6 742.8 2076.1 738.1C2085.3 744.9 2094.6 751.6 2104 758.2Z" fill="black"/>
<path d="M2091.4 890.2C2086.3 882.8 2081.1 875.5 2075.8 868.2C2089.4 832.2 2098.3 794.9 2103.9 758.2C2134.3 779.5 2165.6 799.5 2197.7 818C2189.2 874.1 2176.1 933.5 2157 995.4C2137.2 959.1 2114.9 924.1 2091.4 890.2Z" fill="#C3C1C1"/>
<path d="M2080.6 493.7C2076.8 493.4 2072.9 493.2 2069.1 493.1C2067.8 485.8 2067 481.8 2066.9 481.7L2081.8 478.5L2080.6 493.7Z" fill="black"/>
<path d="M2075.8 868.2C2075 870.3 2074.2 872.3 2073.4 874.4C2070.3 882.2 2061.5 886.1 2053.7 883C2050.7 881.8 2048.3 879.8 2046.6 877.3C2043.9 873.3 2043.2 868.1 2045.1 863.2C2048.3 855.1 2051.2 846.9 2054 838.6C2061.4 848.3 2068.7 858.2 2075.8 868.2Z" fill="black"/>
<path d="M2133.8 1016.3C2107.7 968.3 2077.9 922.2 2045.6 878L2046.7 877.2C2048.4 879.7 2050.8 881.7 2053.8 882.9C2061.6 886 2070.4 882.2 2073.5 874.3C2074.3 872.2 2075.1 870.2 2075.9 868.1C2081.1 875.4 2086.3 882.8 2091.5 890.1C2115 924 2137.3 959.1 2157.2 995.3C2153.8 1006.2 2150.3 1017.1 2146.5 1028.1C2145.1 1032.1 2145.5 1036.3 2147.3 1039.8L2146.4 1040.2C2142.3 1032.2 2138.1 1024.2 2133.8 1016.3Z" fill="black"/>
<path d="M1967.9 510.1C1937.5 520.4 1909.2 534.3 1884.9 548.4C1884.2 548.8 1883.5 549.2 1882.8 549.6C1876.1 541.8 1869.5 533.9 1863.1 525.9C1889.8 510 1922 493.7 1957.3 481.6C1990.3 470.3 2026.2 462.6 2063.3 462.6C2069.8 462.6 2076.3 462.8 2082.9 463.3C2089.6 463.8 2095.2 468.7 2096.6 475.3C2096.7 476 2112.2 548.1 2112.2 643.4C2112.2 676.7 2110.3 712.8 2105.2 749.7C2095.7 743 2086.4 736.2 2077.1 729.3C2080.5 699.6 2081.8 670.6 2081.8 643.4C2081.8 573.8 2073.2 516.5 2069 493.1C2072.8 493.2 2076.7 493.4 2080.5 493.7L2081.7 478.5L2066.8 481.7C2066.8 481.8 2067.7 485.8 2069 493.1C2067.1 493 2065.2 493 2063.2 493C2030.7 493 1998.3 499.8 1967.9 510.1Z" fill="black"/>
<path d="M1998.6 1594.1C1999.6 1597.3 2000.5 1600.6 2001.4 1603.8C1992.5 1609.4 1983.4 1614.8 1974.3 1620.1C1972.7 1614.1 1971 1608.1 1969.2 1602.2C1967 1594.8 1970.2 1589.1 1975.2 1586C1983.1 1581.2 1995.2 1582.7 1998.6 1594.1Z" fill="black"/>
<path d="M1913.9 1381.8C1955.5 1330.3 1995.1 1269.9 2009.1 1204.2C2015.7 1173.1 2017.5 1140.3 2018.7 1108.6C2020.1 1068.4 2018.3 1028.2 2012.9 988.4C2001.8 906.6 1975.5 828.2 1943.6 752.4C1959.4 770.1 1974.7 788.1 1989.7 806.2C2009 829.6 2027.7 853.5 2045.6 878C2077.9 922.2 2107.7 968.2 2133.8 1016.3C2138.1 1024.2 2142.3 1032.2 2146.4 1040.3C2177.7 1101.7 2203.2 1167.9 2211 1236.4C2212.9 1252.9 2214 1269.8 2213.3 1286.4C2213.1 1291.4 2212.6 1296.4 2212.1 1301.4C2212.1 1301.7 2212 1301.9 2212 1302.1C2212 1302.1 2212 1302.1 2212 1302.2C2212 1302.3 2212 1302.4 2212 1302.5C2212 1302.6 2212 1302.7 2211.9 1302.8C2211.7 1304.2 2211.5 1305.5 2211.2 1306.9C2210.7 1310.1 2210.1 1313.3 2209.4 1316.5C2204.1 1341.2 2196.3 1360.7 2185 1381.9C2157.8 1432.9 2118.9 1475.1 2074.7 1512.8C2043.5 1539.5 2009.9 1563.5 1974.7 1585C1883.5 1640.7 1781.1 1679.4 1678.5 1704.2C1638.8 1713.8 1598.5 1721.4 1558 1726.7C1557.5 1726.8 1557 1726.9 1556.4 1727C1555.6 1727 1554.8 1727.1 1553.9 1727.3C1488.1 1739 1421.1 1745.1 1354 1748.5C1283.8 1752 1212.6 1752.9 1142.7 1744.5C1079.8 1737 1014.8 1714.8 959.9 1680.5C959 1679.9 958.1 1679.4 957.2 1678.8C1088.8 1705.3 1224.4 1712 1357.3 1691.2C1475.8 1672.6 1590.8 1632.1 1693.8 1570.5C1777 1520.7 1853 1457.3 1913.9 1381.8Z" fill="#C3C1C1"/>
<path d="M1974.8 1585.1L1975.3 1585.9C1970.3 1589 1967.1 1594.7 1969.3 1602.1C1971.1 1608.1 1972.7 1614 1974.4 1620C1969.9 1622.6 1965.4 1625.2 1960.9 1627.7C1961.7 1623.2 1960.6 1618.6 1956.9 1614.8C1951.6 1609.5 1940.5 1608.3 1935.4 1614.8C1923.1 1630.5 1910.1 1645.8 1896.5 1660.5C1867.6 1673.9 1838 1686.1 1808.1 1697C1728.6 1725.9 1646.1 1745.4 1562.3 1756.6C1570.3 1755.1 1574.9 1745.2 1572.8 1737.9C1570.7 1730.2 1563.8 1726.6 1556.6 1727C1557.1 1726.9 1557.6 1726.8 1558.2 1726.7C1598.7 1721.4 1639 1713.8 1678.7 1704.2C1781.2 1679.5 1883.6 1640.8 1974.8 1585.1Z" fill="black"/>
<path d="M1830.2 482.2C1820.8 468.7 1811.2 454.7 1803.4 440C1847.5 417.4 1900.2 395.3 1960.2 378.5C2022.8 360.9 2093.5 349 2171.1 348.2C2181.3 380.4 2211.2 487.9 2211.2 640.4C2211.2 692.1 2207.8 749.1 2199 810C2166.9 791.3 2135.6 771.3 2105.2 749.9C2110.4 713 2112.2 676.8 2112.2 643.6C2112.2 548.3 2096.7 476.2 2096.6 475.5C2095.2 468.9 2089.6 464 2082.9 463.5C2076.3 463 2069.8 462.8 2063.3 462.8C2026.2 462.8 1990.3 470.5 1957.3 481.8C1921.9 493.9 1889.8 510.2 1863.1 526.1C1851.7 511.7 1840.7 497.1 1830.2 482.2Z" fill="white"/>
<path d="M1627.7 521.2C1635.3 514.2 1664.3 488.5 1712 457.6C1767.5 421.6 1848.4 378.4 1950.2 349.6C2018.1 330.4 2095.3 317.6 2180.4 317.6C2181 317.6 2181.5 317.6 2182.1 317.6C2188.4 317.6 2194.2 321.6 2196.3 327.6C2196.7 328.8 2241.6 450.8 2241.6 640.3C2241.6 751.7 2226.1 886.4 2176.8 1033.3C2170.5 1020.5 2163.9 1007.9 2157 995.5C2176.1 933.6 2189.2 874.2 2197.7 818.1C2203.8 821.7 2210 825.1 2216.2 828.6C2220.5 831 2224.3 824.4 2220 822C2212.9 818.1 2205.9 814.1 2198.9 810C2207.7 749.1 2211.1 692.1 2211.1 640.4C2211.1 487.9 2181.2 380.4 2171 348.2C2174.1 348.2 2177.2 348.1 2180.3 348.1C2180.8 348.1 2181.4 348.1 2181.9 348.1V332.9L2176.4 334.9L2167.6 338.1V338.2C2167.8 338.7 2169 342.1 2170.9 348.2C2093.2 349.1 2022.6 361 1960 378.5C1899.9 395.4 1847.3 417.4 1803.2 440C1800.4 434.8 1797.9 429.5 1795.6 424.1C1793.7 419.6 1786.4 421.6 1788.3 426.1C1790.8 432 1793.6 437.8 1796.6 443.4C1795.2 444.1 1793.8 444.9 1792.4 445.6C1732 477.6 1688.8 509.7 1665.8 528.5C1663.2 528 1660.6 527.4 1658 526.9C1648 524.9 1637.8 523.2 1627.7 521.2Z" fill="black"/>
<path d="M1956.7 1614.9C1960.5 1618.7 1961.5 1623.3 1960.7 1627.8C1939.6 1639.5 1918.1 1650.5 1896.2 1660.6C1909.8 1645.9 1922.8 1630.6 1935.1 1614.9C1940.3 1608.4 1951.5 1609.6 1956.7 1614.9Z" fill="black"/>
<path d="M1960.8 1627.8C1960.2 1630.8 1958.8 1633.8 1956.8 1636.4C1921 1682.1 1880.1 1723.5 1833.5 1758.2C1751.3 1819.4 1652.8 1853.3 1550.4 1855.8C1495.8 1857.2 1440.8 1851.3 1387.3 1840.4C1383.5 1839.6 1379.6 1838.8 1375.8 1838C1392.7 1833.6 1410.9 1826.6 1427.5 1816.8C1522.3 1831.9 1620.1 1828.9 1710.2 1793.1C1782.1 1764.5 1844.2 1717 1896.4 1660.6C1918.2 1650.5 1939.7 1639.5 1960.8 1627.8Z" fill="black"/>
<path d="M1943.1 751.2C1943.3 751.6 1943.4 752 1943.6 752.4C1938.5 746.6 1933.3 740.9 1928.1 735.3C1922.4 722.2 1916.6 709.2 1910.7 696.3C1908.7 691.9 1915.2 688 1917.3 692.5C1926.1 711.9 1934.8 731.5 1943.1 751.2Z" fill="black"/>
<path d="M1974.5 644C1942.4 614.3 1911.4 582.9 1882.8 549.6C1883.5 549.2 1884.2 548.8 1884.9 548.4C1909.1 534.4 1937.5 520.5 1967.9 510.1C1998.3 499.8 2030.8 493 2063.3 493C2065.2 493 2067.1 493 2069.1 493.1C2073.3 516.5 2081.9 573.8 2081.9 643.4C2081.9 670.6 2080.6 699.7 2077.2 729.3C2041.4 702.7 2007.2 674.2 1974.5 644Z" fill="#FA8B90"/>
<path d="M1721.7 1544C1799 1493.2 1869.5 1430 1924.7 1355.6C1963.5 1303.3 1997.4 1244 2005.4 1178.3C2015.4 1096.6 2013 1014.1 1995.5 933.6C1980.6 865.2 1956 799.4 1928.1 735.3C1933.3 741 1938.5 746.7 1943.6 752.4C1975.5 828.2 2001.8 906.6 2012.9 988.4C2018.3 1028.2 2020.1 1068.4 2018.7 1108.6C2017.5 1140.3 2015.7 1173.1 2009.1 1204.2C1995.1 1269.9 1955.5 1330.3 1913.9 1381.8C1853 1457.3 1777 1520.7 1693.9 1570.4C1590.9 1632.1 1475.9 1672.6 1357.4 1691.1C1224.5 1711.9 1088.8 1705.2 957.3 1678.7C951.7 1675.2 946.2 1671.4 940.8 1667.5C950.9 1669.7 960.9 1671.8 971.1 1673.7C1113.1 1701.1 1260.3 1704.6 1402.3 1675.2C1515.8 1651.8 1624.8 1607.7 1721.7 1544Z" fill="#C3C1C1"/>
<path d="M1882.8 549.6C1911.4 582.9 1942.4 614.3 1974.5 644C2007.2 674.2 2041.4 702.7 2077.1 729.4C2076.8 732.3 2076.4 735.2 2076.1 738.1C2071.9 735 2067.7 731.9 2063.6 728.7C1995.5 676.9 1932.1 618.4 1876.4 553.5C1878.5 552.1 1880.6 550.9 1882.8 549.6Z" fill="#CF5054"/>
<path d="M1923.3 686.7C1890.6 653.5 1855.6 621.3 1817.1 594.4C1829.6 584.5 1850.2 569.2 1876.4 553.5C1932.1 618.5 1995.5 676.9 2063.6 728.7C2067.8 731.9 2071.9 735 2076.1 738.1C2075.5 742.8 2074.9 747.4 2074.2 752.1C2069.8 781.1 2063.4 810.3 2054.1 838.6C2013.8 785.1 1970.1 734.2 1923.3 686.7Z" fill="#CF5054"/>
<path d="M1882.8 549.6C1880.6 550.9 1878.5 552.2 1876.4 553.4C1875.5 552.4 1874.6 551.3 1873.7 550.2C1868 543.5 1862.3 536.6 1856.7 529.8C1858.8 528.5 1860.9 527.2 1863.1 525.9C1869.5 533.9 1876.1 541.8 1882.8 549.6Z" fill="black"/>
<path d="M1873.6 550.2C1874.5 551.3 1875.4 552.3 1876.3 553.4C1850.1 569.1 1829.5 584.5 1817 594.3C1808.3 588.2 1799.3 582.3 1790.2 576.8C1798.3 570.1 1813.3 558.2 1833.5 544.5C1840.6 539.7 1848.3 534.7 1856.5 529.7C1862.2 536.7 1867.9 543.5 1873.6 550.2Z" fill="black"/>
<path d="M1896.3 1660.6C1844 1717 1781.9 1764.5 1710.1 1793.1C1620 1828.9 1522.2 1831.9 1427.4 1816.8C1447.6 1804.9 1465.4 1789 1475.5 1769C1504.5 1765.7 1533.4 1761.7 1562.1 1756.6C1562.1 1756.6 1562.1 1756.6 1562.2 1756.6C1646 1745.4 1728.5 1725.9 1808 1697C1837.8 1686.2 1867.4 1674.1 1896.3 1660.6Z" fill="#1C9312"/>
<path d="M1770.5 565.6C1737.5 548 1702.4 536.2 1666 528.5C1689.1 509.7 1732.3 477.6 1792.6 445.6C1794 444.9 1795.4 444.1 1796.8 443.4C1803 455.1 1810.2 466.3 1817.6 477.2C1829.8 495.3 1842.9 512.8 1856.7 529.8C1848.4 534.9 1840.7 539.9 1833.7 544.6C1813.4 558.3 1798.4 570.2 1790.4 576.9C1783.8 572.9 1777.2 569.2 1770.5 565.6Z" fill="#C3C1C1"/>
<path d="M1856.7 529.8C1843 512.8 1829.8 495.3 1817.6 477.2C1810.3 466.3 1803 455.1 1796.8 443.4C1799 442.3 1801.2 441.1 1803.4 440C1811.2 454.7 1820.7 468.7 1830.2 482.2C1840.6 497.1 1851.6 511.7 1863 525.9C1860.9 527.2 1858.8 528.5 1856.7 529.8Z" fill="#C3C1C1"/>
<path d="M1803.9 605.3C1798.7 610 1791.1 610.4 1785.5 606.8C1784.4 606.1 1783.3 605.2 1782.4 604.1C1776.8 597.8 1777.3 588.2 1783.6 582.6C1783.7 582.5 1786.1 580.4 1790.3 576.9C1799.4 582.4 1808.3 588.2 1817.1 594.4C1808.7 600.9 1804.1 605.1 1803.9 605.3Z" fill="black"/>
<path d="M1803.5 439.9C1801.3 441 1799.1 442.2 1796.9 443.3C1793.9 437.7 1791.1 431.9 1788.6 426C1786.7 421.5 1794.1 419.5 1795.9 424C1798.1 429.4 1800.7 434.7 1803.5 439.9Z" fill="black"/>
<path d="M1817.1 594.3C1855.6 621.2 1890.6 653.4 1923.3 686.6C1970.1 734.1 2013.8 785.1 2054 838.5C2051.3 846.8 2048.3 855 2045.1 863.1C2043.2 867.9 2043.9 873.2 2046.6 877.2L2045.5 878C2027.6 853.5 2008.9 829.6 1989.6 806.2C1974.6 788 1959.3 770 1943.5 752.4C1943.3 752 1943.2 751.6 1943 751.2C1934.7 731.5 1926 711.9 1917.1 692.4C1915.1 688 1908.5 691.8 1910.5 696.2C1916.4 709.1 1922.2 722.1 1927.9 735.2C1895 699.6 1860.1 666 1822.2 636.1C1810.1 626.6 1797.3 617.4 1784 608.9L1785.4 606.7C1791 610.3 1798.5 609.9 1803.8 605.2C1804.1 605.1 1808.7 600.9 1817.1 594.3Z" fill="black"/>
<path d="M1727.9 578.7H1727.8C1727.8 578.7 1727.7 578.6 1727.6 578.6C1727.8 578.7 1727.9 578.7 1727.9 578.7Z" fill="black"/>
<path d="M1727.8 578.7C1727.7 578.7 1727.7 578.6 1727.6 578.6C1727.7 578.6 1727.8 578.7 1727.8 578.7Z" fill="black"/>
<path d="M1727.7 578.6C1727.6 578.6 1727.6 578.6 1727.7 578.6C1727.6 578.6 1727.5 578.5 1727.5 578.5C1727.5 578.5 1727.6 578.6 1727.7 578.6Z" fill="black"/>
<path d="M1702.6 569.3C1679.7 561.9 1656.1 557.5 1632.5 553.1L1633.3 549C1638 549.9 1643.1 548.6 1646.8 545.1C1647.2 544.7 1653.7 538.5 1666 528.5C1702.4 536.2 1737.5 547.9 1770.5 565.6C1777.2 569.2 1783.8 572.9 1790.3 576.9C1786.1 580.4 1783.7 582.5 1783.6 582.6C1777.3 588.2 1776.8 597.8 1782.4 604.1C1783.3 605.1 1784.4 606 1785.5 606.8L1784.1 609C1775.2 603.3 1766.1 597.9 1757 592.9C1747.5 587.8 1737.8 583.1 1728 578.8C1727.9 578.8 1727.8 578.7 1727.7 578.7C1727.6 578.7 1727.6 578.6 1727.5 578.6C1727.6 578.6 1727.6 578.6 1727.7 578.7C1726.9 578.4 1725.2 577.7 1724.8 577.5C1723.7 577 1722.5 576.6 1721.4 576.1C1719.2 575.2 1716.9 574.4 1714.7 573.5C1710.6 572 1706.6 570.6 1702.6 569.3Z" fill="black"/>
<path d="M1666 528.5C1653.7 538.5 1647.2 544.7 1646.8 545.1L1637.1 535L1646.8 545.2C1643.1 548.8 1638 550.1 1633.3 549.1C1630.3 548.5 1627.5 547 1625.3 544.7C1619.5 538.6 1619.7 529 1625.8 523.2C1625.9 523.1 1626.5 522.5 1627.8 521.3C1637.9 523.2 1648.1 525 1658.2 527C1660.8 527.4 1663.4 527.9 1666 528.5Z" fill="black"/>
<path d="M1637 534.9L1646.8 545.1L1637 534.9Z" fill="black"/>
<path d="M1572.7 1738C1574.7 1745.4 1570.2 1755.2 1562.2 1756.7C1562.2 1756.7 1562.2 1756.7 1562.1 1756.7C1560.7 1756.9 1559.4 1757 1558.1 1757.2C1549.9 1758.3 1542.9 1749.4 1542.9 1742C1542.9 1733.6 1549.1 1728.5 1556.5 1727C1563.7 1726.7 1570.6 1730.3 1572.7 1738Z" fill="black"/>
<path d="M804.8 1395.8C805.8 1366.1 808.4 1336.4 812 1306.8C813.3 1308.3 814.7 1309.8 816.1 1311.3C821.7 1317.5 831.4 1318 837.6 1312.3C840.5 1309.7 842.1 1306.2 842.5 1302.6L843.1 1302.7C834.1 1371 829.5 1441 842 1508.5C848.8 1545.4 860.7 1580.6 882.8 1611.2C898.7 1633.1 918.9 1651.8 940.8 1667.6C930.8 1665.4 920.9 1663.1 911 1660.8C906.2 1659.7 904.2 1667 909 1668.1C925 1671.9 941.2 1675.5 957.3 1678.8C958.2 1679.4 959.1 1680 960 1680.5C1014.9 1714.9 1079.9 1737 1142.8 1744.5C1212.7 1752.9 1283.9 1752.1 1354.1 1748.5C1421.2 1745.1 1488.2 1739 1554 1727.3C1554.8 1727.1 1555.7 1727.1 1556.5 1727C1549 1728.5 1542.9 1733.6 1542.9 1742C1542.9 1749.4 1549.9 1758.3 1558.1 1757.2C1559.5 1757 1560.8 1756.9 1562.1 1756.7C1533.4 1761.8 1504.4 1765.8 1475.5 1769.1C1478 1764.1 1480 1758.8 1481.5 1753.3C1482.8 1748.6 1475.4 1746.5 1474.2 1751.3C1472.4 1758 1469.7 1764.2 1466.3 1770.1C1407.4 1776.5 1348.1 1780.4 1288.8 1781.2C1274.4 1775.8 1260.2 1769.8 1246.3 1763.2C1239.6 1760 1231.6 1760.9 1226.9 1766.6C1220.4 1757.4 1203.2 1756.6 1199.4 1770.6C1198.6 1773.6 1197.8 1776.6 1197 1779.7C1146.8 1777.1 1096.7 1770.5 1048.8 1754.7C977.8 1731.3 907.7 1693.4 861.4 1633.3C810.3 1566.7 801.9 1477 804.8 1395.8Z" fill="black"/>
<path d="M1474.1 1751.3C1475.4 1746.6 1482.7 1748.6 1481.4 1753.3C1479.9 1758.8 1477.9 1764.1 1475.4 1769.1C1473 1769.4 1470.6 1769.6 1468.2 1769.9C1467.5 1770 1466.9 1770.1 1466.2 1770.1C1469.6 1764.2 1472.3 1758 1474.1 1751.3Z" fill="black"/>
<path d="M1468.2 1769.9C1470.6 1769.6 1473 1769.4 1475.4 1769.1C1465.3 1789.1 1447.5 1805 1427.3 1816.9C1423.3 1816.3 1419.3 1815.6 1415.3 1814.9C1436 1804.2 1455 1789.3 1466.2 1770.1C1466.9 1770 1467.5 1769.9 1468.2 1769.9Z" fill="#1C9312"/>
<path d="M1466.2 1770.1C1455 1789.3 1436 1804.2 1415.3 1814.9C1415.2 1814.9 1415.2 1814.9 1415.1 1814.9C1372.2 1807.4 1329.5 1796.6 1288.7 1781.2C1348 1780.4 1407.3 1776.5 1466.2 1770.1Z" fill="#3AD82E"/>
<path d="M1415.3 1814.9C1419.3 1815.6 1423.3 1816.3 1427.3 1816.9C1410.7 1826.7 1392.5 1833.7 1375.6 1838.1C1374.3 1837.8 1373 1837.5 1371.7 1837.2C1369.9 1835.3 1370 1831.7 1373.2 1830.8C1386.9 1827.3 1401.5 1822 1415.3 1814.9Z" fill="black"/>
<path d="M1415.1 1814.8C1415.2 1814.8 1415.2 1814.8 1415.3 1814.8C1401.5 1822 1386.8 1827.2 1373.3 1830.7C1370.1 1831.5 1370 1835.2 1371.8 1837.1C1323.3 1826.3 1275.8 1810.7 1230.9 1789.4C1229.3 1788.6 1227.9 1787.5 1226.8 1786.1C1227.3 1784.3 1227.7 1782.5 1228.2 1780.7C1233.7 1780.9 1239.2 1781 1244.6 1781C1259.3 1781.2 1274 1781.2 1288.7 1781C1329.6 1796.5 1372.3 1807.3 1415.1 1814.8Z" fill="black"/>
<path d="M1375.7 1838C1375.6 1838 1375.5 1838.1 1375.4 1838.1C1373.9 1838.5 1372.7 1838 1371.8 1837.1C1373.1 1837.4 1374.4 1837.7 1375.7 1838Z" fill="black"/>
<path d="M1288.7 1781.2C1274 1781.4 1259.3 1781.4 1244.6 1781.2C1239.1 1781.1 1233.6 1781 1228.2 1780.9C1228.4 1780.2 1228.6 1779.5 1228.8 1778.8C1230.1 1774 1229.2 1769.8 1226.9 1766.7C1231.6 1761 1239.6 1760.1 1246.3 1763.3C1260.1 1769.7 1274.3 1775.7 1288.7 1781.2Z" fill="black"/>
<path d="M1226.8 1766.5C1229 1769.6 1230 1773.8 1228.7 1778.6C1228.5 1779.3 1228.3 1780 1228.1 1780.7C1226.7 1780.7 1225.3 1780.6 1224 1780.6C1222.9 1776.5 1223.3 1772 1225.4 1768.5C1225.8 1767.8 1226.3 1767.1 1226.8 1766.5Z" fill="black"/>
<path d="M1228.2 1780.8C1227.7 1782.6 1227.3 1784.4 1226.8 1786.2C1225.5 1784.6 1224.6 1782.7 1224.1 1780.7C1225.4 1780.7 1226.8 1780.8 1228.2 1780.8Z" fill="black"/>
<path d="M1226.8 1766.5C1226.3 1767.1 1225.8 1767.8 1225.4 1768.6C1223.4 1772.1 1222.9 1776.6 1224 1780.7C1215 1780.4 1206 1780.1 1197 1779.6C1197.8 1776.6 1198.6 1773.6 1199.4 1770.5C1203.2 1756.5 1220.4 1757.3 1226.8 1766.5Z" fill="black"/>
<path d="M1124.6 639.9C1127.5 632 1123.5 623.3 1115.6 620.3C1115.4 620.2 1112.7 619.3 1107.8 617.6C1122.4 607.5 1137.6 598.2 1153.2 589.7C1217.5 555.1 1288.6 533.2 1360.2 520.1C1421.9 508.8 1485.9 502.5 1548.6 507.4C1569.9 509.1 1590.2 513.3 1611 517.7C1616.6 518.9 1622.2 520 1627.9 521.1C1626.7 522.2 1626 522.9 1625.9 523C1619.8 528.8 1619.6 538.4 1625.4 544.5C1627.6 546.8 1630.5 548.3 1633.4 548.9L1632.6 553C1623.5 551.3 1614.3 549.5 1605.2 547.6C1597.3 545.9 1589.4 543.8 1581.4 542.2C1576.5 541.2 1571.6 540.4 1566.7 539.7H1566.6H1566.5C1566.4 539.7 1566.4 539.7 1566.3 539.7C1566.2 539.7 1566.2 539.7 1566.1 539.7C1566.1 539.7 1566.2 539.7 1566.3 539.7C1565.6 539.6 1564.4 539.5 1564.2 539.4C1562.8 539.2 1561.5 539.1 1560.1 538.9C1557.3 538.6 1554.4 538.3 1551.6 538.1C1524.4 535.8 1497 535.9 1469.7 537.4C1402.7 541 1335.9 553.1 1271.9 573.2C1217.1 590.4 1165.6 614.5 1119.2 647.3L1119.1 647.1C1121.4 645.5 1123.4 643 1124.6 639.9Z" fill="black"/>
<path d="M1107 643.4L1105 648.9L1104.8 648.8C1104.6 648.8 1104.4 648.7 1104.1 648.5C1103.4 648.3 1102.4 647.9 1100.9 647.4C1098.1 646.4 1093.8 645.1 1088.1 643.4C1084.9 642.5 1081.3 641.4 1077.3 640.3C1087.2 632.3 1097.3 624.8 1107.7 617.6C1112.7 619.2 1115.3 620.2 1115.5 620.3C1123.4 623.2 1127.4 632 1124.5 639.9C1123.4 643 1121.3 645.5 1118.8 647.2C1114.9 649.9 1109.7 650.7 1104.9 648.9L1107 643.4Z" fill="black"/>
<path d="M1107 643.4L1105 648.9L1107 643.4Z" fill="black"/>
<path d="M841.9 1508.5C829.4 1441 834 1371 843 1302.7C845.2 1286.4 847.6 1270.2 850 1254.1C857.3 1207.2 864.5 1160.1 873.1 1113.3C878.1 1086.1 883.4 1058.9 889.5 1032C904.4 965.5 924.1 899.5 955.1 838.6C987.3 775.5 1031.1 719.7 1085 673.7C1096 664.3 1107.3 655.6 1118.9 647.4C1165.4 614.6 1216.9 590.5 1271.6 573.3C1335.6 553.2 1402.4 541.1 1469.4 537.5C1496.6 536 1524.1 535.9 1551.3 538.2C1554.1 538.4 1557 538.7 1559.8 539C1561.2 539.1 1562.5 539.3 1563.9 539.5C1564.1 539.5 1565.3 539.7 1566 539.8C1566.1 539.8 1566.2 539.8 1566.2 539.8H1566.3H1566.4C1571.3 540.5 1576.2 541.3 1581.1 542.3C1589.1 543.9 1596.9 546 1604.9 547.7C1614 549.6 1623.2 551.4 1632.3 553.1C1655.9 557.5 1679.4 561.9 1702.4 569.3C1706.4 570.6 1710.5 572 1714.5 573.5C1716.8 574.3 1719 575.2 1721.2 576.1C1722.3 576.5 1723.5 577 1724.6 577.5C1724.9 577.6 1726.6 578.3 1727.5 578.7C1727.6 578.7 1727.6 578.7 1727.7 578.8H1727.8C1737.7 583.1 1747.4 587.8 1756.8 592.9C1766 597.9 1775.1 603.3 1783.9 609C1797.2 617.5 1810.1 626.8 1822.1 636.2C1860 666.1 1894.9 699.8 1927.8 735.3C1955.7 799.4 1980.3 865.2 1995.2 933.6C2012.8 1014.1 2015.1 1096.6 2005.1 1178.3C1997.1 1243.9 1963.2 1303.2 1924.4 1355.6C1869.1 1430 1798.7 1493.2 1721.4 1544C1624.5 1607.7 1515.4 1651.8 1401.9 1675.3C1259.9 1704.7 1112.7 1701.3 970.7 1673.8C960.6 1671.9 950.5 1669.8 940.4 1667.6C918.4 1651.8 898.2 1633.1 882.4 1611.2C860.6 1580.6 848.7 1545.4 841.9 1508.5Z" fill="white"/>
<path d="M987.8 737.8C995.7 740.5 1000 749.2 997.2 757.2C994.5 765.1 985.8 769.4 977.9 766.6L979.8 761.1L977.9 766.6H977.8C977.7 766.6 977.5 766.5 977.3 766.4C976.8 766.2 976.1 766 975.1 765.7C973.1 765.1 970.2 764.2 966.4 763.1C965.9 763 965.4 762.8 964.9 762.7C970.4 754.6 976.1 746.6 982.1 738.7C982.6 738 983.2 737.3 983.8 736.6C986.2 737.3 987.6 737.7 987.8 737.8Z" fill="black"/>
<path d="M1077.4 640.4C1042.4 668.5 1010.9 701.2 983.7 736.5C976.8 734.3 961.5 729.8 940.4 725.2C923.5 721.5 902.8 717.9 879.8 715.5C881.1 705 882.2 694.5 883.3 684C885.6 660.9 888 636.8 886.6 613.3C948.9 614.9 1001.4 623 1039.3 631.1C1054.3 634.3 1067.2 637.5 1077.4 640.4Z" fill="#C3C1C1"/>
<path d="M983.6 736.4C983 737.1 982.5 737.8 981.9 738.5C975.9 746.3 970.2 754.3 964.7 762.5C957.2 760.4 946.6 757.6 933.9 754.8C917.7 751.3 897.7 747.8 875.7 745.5C877.1 735.5 878.5 725.4 879.7 715.3C902.7 717.7 923.4 721.4 940.3 725C961.4 729.7 976.7 734.3 983.6 736.4Z" fill="black"/>
<path d="M979.7 761L977.8 766.5L979.7 761Z" fill="black"/>
<path d="M933.9 754.9C946.7 757.7 957.2 760.4 964.7 762.6C930.3 813.4 904.9 869.9 885.9 928.2C869.7 978.1 858.1 1029.2 848.4 1080.7C834.9 1065.5 822.4 1049.4 810.8 1032.7C819.6 1003.7 827.5 974.4 834.9 945.3C851.6 879.6 865.9 812.9 875.5 745.6C897.8 747.9 917.7 751.4 933.9 754.9Z" fill="#CF5054"/>
<path d="M940.8 1667.6C946.2 1671.5 951.7 1675.2 957.3 1678.8C941.1 1675.5 925 1672 909 1668.1C904.2 1667 906.3 1659.6 911 1660.8C920.8 1663.1 930.8 1665.4 940.8 1667.6Z" fill="black"/>
<path d="M886.5 613.2C884 613.1 881.5 613.1 879 613C878.7 607.4 878.1 601.9 877.2 596.4C876.4 591.6 883.8 589.6 884.5 594.4C885.5 600.7 886.1 606.9 886.5 613.2Z" fill="black"/>
<path d="M878.9 613.1C881.4 613.1 884 613.2 886.4 613.3C887.8 636.8 885.3 660.9 883.1 684C882.1 694.5 880.9 705 879.6 715.5C877.1 715.2 874.6 715 872 714.8C873.8 700.7 875.3 686.5 876.5 672.3C878.3 652.9 880.1 632.7 878.9 613.1Z" fill="#C3C1C1"/>
<path d="M879.7 715.4C878.5 725.5 877.1 735.5 875.7 745.6C873.2 745.3 870.6 745.1 868 744.9C869.5 734.8 870.9 724.8 872.2 714.7C874.7 714.9 877.2 715.2 879.7 715.4Z" fill="black"/>
<path d="M870.1 1112.8C871 1108 869.6 1102.8 865.9 1099.1C859.9 1093.1 854.1 1087 848.5 1080.7C858.2 1029.2 869.8 978 886 928.2C904.9 869.9 930.3 813.4 964.8 762.6C965.3 762.8 965.8 762.9 966.3 763C970.1 764.1 973 765 975 765.6C976 765.9 976.7 766.2 977.2 766.3C977.4 766.4 977.6 766.4 977.7 766.5H977.8C985.7 769.3 994.4 765 997.1 757.1C999.9 749.2 995.6 740.5 987.7 737.7C987.6 737.7 986.2 737.2 983.6 736.4C1010.8 701.1 1042.3 668.5 1077.3 640.3C1081.3 641.4 1084.9 642.4 1088.1 643.4C1093.7 645.1 1098 646.5 1100.9 647.4C1102.3 647.9 1103.4 648.3 1104.1 648.5C1104.4 648.6 1104.7 648.7 1104.8 648.8L1105 648.9C1109.8 650.7 1114.9 649.9 1118.9 647.2L1119 647.4C1107.4 655.6 1096.1 664.4 1085.1 673.7C1031.2 719.7 987.3 775.4 955.2 838.6C924.2 899.5 904.5 965.5 889.6 1032C883.5 1059 878.2 1086.1 873.2 1113.3L870.1 1112.8Z" fill="black"/>
<path d="M868 744.9C870.6 745.1 873.2 745.4 875.7 745.6C866.1 812.9 851.8 879.6 835.1 945.3C827.7 974.4 819.8 1003.7 811 1032.7C809.1 1029.9 807.2 1027.1 805.3 1024.3C828.9 947.3 847 868.5 860.9 789.3C863.4 774.6 865.8 759.8 868 744.9Z" fill="#CF5054"/>
<path d="M841.7 1118C843.9 1105.6 846.1 1093.1 848.5 1080.7C854.1 1087 859.9 1093.2 865.9 1099.1C869.6 1102.8 871 1108 870.1 1112.8C869.5 1115.7 868.1 1118.4 865.9 1120.7C860 1126.6 850.3 1126.6 844.4 1120.7C843.5 1119.8 842.6 1118.9 841.7 1118Z" fill="black"/>
<path d="M817.2 1266.7C823.3 1224.7 830.6 1182.9 837.7 1141.3C839 1133.5 840.3 1125.7 841.7 1117.9C842.6 1118.8 843.5 1119.7 844.3 1120.6C850.2 1126.5 859.9 1126.5 865.8 1120.6C868 1118.4 869.4 1115.6 870 1112.7L873.1 1113.3C864.5 1160.1 857.3 1207.1 850 1254.1C847.5 1270.2 845.1 1286.4 843 1302.7L842.4 1302.6C842.8 1298.5 841.5 1294.2 838.5 1290.8C831.3 1282.8 824.2 1274.8 817.2 1266.7Z" fill="black"/>
<path d="M841.7 1118C826.4 1102.5 812.4 1085.9 799.4 1068.8C803.4 1056.8 807.2 1044.8 810.9 1032.8C822.4 1049.4 834.9 1065.6 848.5 1080.8C846.2 1093.1 843.9 1105.5 841.7 1118Z" fill="black"/>
<path d="M752.6 1184.8C770.9 1147.4 786.2 1108.4 799.5 1068.7C812.4 1085.8 826.5 1102.4 841.8 1117.9C840.4 1125.7 839.1 1133.5 837.8 1141.3C830.8 1182.9 823.4 1224.7 817.3 1266.7C793.7 1239.4 772.2 1212 752.6 1184.8Z" fill="#C3C1C1"/>
<path d="M816 1311.3C814.6 1309.8 813.3 1308.3 811.9 1306.8C813.5 1293.4 815.3 1280.1 817.2 1266.8C824.1 1274.8 831.2 1282.9 838.5 1290.9C841.5 1294.2 842.8 1298.5 842.4 1302.7C842 1306.3 840.4 1309.8 837.5 1312.4C831.3 1318 821.6 1317.5 816 1311.3Z" fill="black"/>
<path d="M811.9 1306.8C673 1152.1 598.7 993.5 559 873.1C519 751.5 514.2 668.8 514.2 667.8C513.8 661.4 517.5 655.6 523.3 653C647.7 598.8 766.6 582.5 864.7 582.5C990 582.5 1081.3 609 1107.8 617.7C1097.4 624.9 1087.3 632.4 1077.4 640.4C1067.2 637.6 1054.4 634.3 1039.2 631.1C1001.3 623 948.8 614.9 886.5 613.3C886.2 607 885.5 600.7 884.5 594.5C883.7 589.7 876.4 591.7 877.2 596.5C878.1 602 878.6 607.5 879 613.1C874.3 613 869.6 613 864.7 613C772.6 613 661.7 627.9 545.5 676.7C545.2 673.7 545 671.3 544.8 669.5C544.7 668.3 544.6 667.5 544.6 666.9C544.6 666.6 544.6 666.4 544.6 666.3V666.2L533.9 666.8L532.4 666.9L529.3 667.1L535.4 681.1C538.7 679.6 542.1 678.2 545.4 676.8C545.5 677.8 545.6 678.9 545.7 680.1C546.7 689.3 548.5 702.9 551.5 720.3C557.5 755 568.3 804.6 587.8 863.8C617.2 952.9 666.1 1063.7 747.4 1178C743.7 1185.7 739.9 1193.3 735.9 1200.8C733.6 1205.1 740.2 1209 742.5 1204.6C745.9 1198.1 749.3 1191.6 752.5 1185C772.1 1212.2 793.6 1239.6 817.1 1266.9C815.3 1280.1 813.5 1293.4 811.9 1306.8Z" fill="black"/>
<path d="M805.2 1024.3C807.1 1027.1 809 1029.9 810.9 1032.7C807.2 1044.8 803.4 1056.8 799.4 1068.7C797.4 1066.1 795.4 1063.4 793.5 1060.7C797.6 1048.7 801.5 1036.5 805.2 1024.3Z" fill="black"/>
<path d="M750.3 720.1C723.9 725.4 697.4 734.1 672.3 747.3C666.3 750.4 663.1 757.1 664.5 763.7C664.6 764.3 675.6 819.2 703.4 891.1C717.3 927.1 735.5 967.3 758.6 1007.1C769.2 1025.2 780.8 1043.3 793.5 1060.8C793 1062.3 792.5 1063.7 792.1 1065.2C779.3 1103.5 765 1141.4 747.5 1177.8C666.2 1063.5 617.2 952.7 587.9 863.6C568.4 804.4 557.6 754.8 551.6 720.1C548.6 702.8 546.9 689.1 545.8 679.9C545.7 678.7 545.6 677.7 545.5 676.6C661.7 627.8 772.6 612.9 864.7 612.9C869.5 612.9 874.3 612.9 879 613C880.1 632.7 878.3 652.8 876.7 672.1C875.5 686.3 874 700.5 872.2 714.6C858.2 713.4 843.4 712.6 828.1 712.6C803.1 712.7 776.7 714.7 750.3 720.1Z" fill="white"/>
<path d="M799.5 1068.8C786.2 1108.5 771 1147.5 752.6 1184.9C750.9 1182.5 749.2 1180.2 747.5 1177.8C765 1141.4 779.3 1103.4 792.1 1065.2C792.6 1063.7 793.1 1062.3 793.5 1060.8C795.5 1063.5 797.5 1066.1 799.5 1068.8Z" fill="#C3C1C1"/>
<path d="M747.5 1177.8C749.2 1180.2 750.9 1182.5 752.6 1184.9C749.4 1191.5 746.1 1198 742.6 1204.5C740.3 1208.8 733.7 1205 736 1200.7C740 1193.1 743.9 1185.4 747.5 1177.8Z" fill="black"/>
<path d="M714.6 831.6C707.4 809.4 702.3 790.9 699.1 777.9C698.3 774.6 697.5 771.6 696.9 769.1C716 760.2 736.1 754 756.4 749.9C780.4 745 804.8 743.1 828.1 743.1C841.9 743.1 855.3 743.8 868.1 744.9C865.9 759.7 863.5 774.6 860.9 789.3C847.1 868.5 828.9 947.3 805.3 1024.3C798.1 1013.6 791.4 1002.7 785 991.8C751.7 934.7 728.9 876 714.6 831.6Z" fill="#FA8B90"/>
<path d="M694.6 759C694.8 759.9 695.1 761.2 695.5 762.9C695.9 764.6 696.4 766.7 696.9 769.1C693.4 770.7 689.9 772.4 686.5 774.2L679.4 760.8L694.3 757.8V758C694.4 758.2 694.5 758.5 694.6 759Z" fill="black"/>
<path d="M694.4 758V757.8L679.5 760.8L686.6 774.2C690 772.4 693.5 770.7 697 769.1C697.6 771.6 698.3 774.6 699.2 777.9C702.5 790.9 707.6 809.5 714.7 831.6C729.1 876 751.8 934.7 785.1 991.8C791.5 1002.7 798.2 1013.6 805.4 1024.3C801.7 1036.5 797.8 1048.7 793.7 1060.8C780.9 1043.3 769.4 1025.3 758.8 1007.1C735.6 967.3 717.5 927.1 703.6 891.1C675.8 819.2 664.8 764.2 664.7 763.7C663.4 757.1 666.6 750.4 672.5 747.3C697.7 734.1 724.1 725.4 750.5 720.1C776.9 714.8 803.2 712.7 828.2 712.7C843.5 712.7 858.3 713.5 872.3 714.7C871 724.8 869.7 734.8 868.1 744.9C855.3 743.8 841.9 743.1 828.1 743.1C804.8 743.1 780.4 745 756.4 749.9C736.1 754 716 760.2 696.9 769.1C696.3 766.7 695.8 764.6 695.5 762.9C695.1 761.2 694.8 759.9 694.6 759C694.5 758.5 694.4 758.2 694.4 758Z" fill="black"/>
<path d="M545.5 676.6C542.2 678 538.8 679.4 535.5 680.9L529.4 666.9L532.5 666.7L534 666.6L544.7 666V666.1C544.7 666.2 544.7 666.4 544.7 666.7C544.7 667.3 544.8 668.1 544.9 669.3C545 671.2 545.2 673.6 545.5 676.6Z" fill="black"/>
<path d="M544.6 666.1L533.9 666.7L544.6 666.1Z" fill="black"/>
<path d="M1621.9 1308.4C1621.9 1308.4 1494.1 1265 1398.3 1363.2C1398.3 1363.2 1421.1 1449.9 1530.7 1447.6C1530.6 1447.6 1635.6 1420.3 1621.9 1308.4Z" fill="black"/>
<path d="M1571.5 1355.5L1465.5 1377.8C1460.3 1378.9 1455.1 1375.5 1454 1370.3L1451.9 1360.3C1450.8 1355.1 1454.2 1349.9 1459.4 1348.8L1565.4 1326.5C1570.6 1325.4 1575.8 1328.8 1576.9 1334L1579 1344C1580.1 1349.2 1576.7 1354.4 1571.5 1355.5Z" fill="white"/>
<path d="M1227.5 1350.4C1286.32 1350.4 1334 1300.52 1334 1239C1334 1177.48 1286.32 1127.6 1227.5 1127.6C1168.68 1127.6 1121 1177.48 1121 1239C1121 1300.52 1168.68 1350.4 1227.5 1350.4Z" fill="black"/>
<path d="M1258.9 1244C1283.37 1244 1303.2 1223.23 1303.2 1197.6C1303.2 1171.97 1283.37 1151.2 1258.9 1151.2C1234.43 1151.2 1214.6 1171.97 1214.6 1197.6C1214.6 1223.23 1234.43 1244 1258.9 1244Z" fill="white"/>
<path d="M1215.1 1295.6C1225.54 1295.6 1234 1286.78 1234 1275.9C1234 1265.02 1225.54 1256.2 1215.1 1256.2C1204.66 1256.2 1196.2 1265.02 1196.2 1275.9C1196.2 1286.78 1204.66 1295.6 1215.1 1295.6Z" fill="white"/>
<path d="M1723.5 1246.9C1782.32 1246.9 1830 1197.02 1830 1135.5C1830 1073.98 1782.32 1024.1 1723.5 1024.1C1664.68 1024.1 1617 1073.98 1617 1135.5C1617 1197.02 1664.68 1246.9 1723.5 1246.9Z" fill="black"/>
<path d="M1692.1 1140.5C1716.57 1140.5 1736.4 1119.73 1736.4 1094.1C1736.4 1068.47 1716.57 1047.7 1692.1 1047.7C1667.63 1047.7 1647.8 1068.47 1647.8 1094.1C1647.8 1119.73 1667.63 1140.5 1692.1 1140.5Z" fill="white"/>
<path d="M1735.8 1192.2C1746.24 1192.2 1754.7 1183.38 1754.7 1172.5C1754.7 1161.62 1746.24 1152.8 1735.8 1152.8C1725.36 1152.8 1716.9 1161.62 1716.9 1172.5C1716.9 1183.38 1725.36 1192.2 1735.8 1192.2Z" fill="white"/>
<path d="M1737 1356.9C1735.3 1348.8 1725.8 1344.2 1718.3 1346.3C1709.9 1348.6 1706 1356.9 1707.7 1365C1711.1 1381.6 1712.3 1399.1 1708.2 1414.8C1704.8 1427.7 1698.9 1437.2 1688.8 1446.2C1684.8 1449.8 1679.6 1453.2 1673.4 1456.5C1666.9 1459.9 1662.6 1461.5 1655.1 1463.8C1637 1469.3 1618.1 1471.5 1599.2 1470.2C1578 1468.7 1556.6 1461.6 1540.3 1447.8C1534 1442.5 1524.9 1441.6 1518.8 1447.8C1517 1449.6 1515.7 1452.1 1515 1454.7C1513.9 1456.2 1512.9 1457.8 1512.2 1459.6C1504.3 1479 1489.5 1496 1471.9 1507.4C1456.2 1517.6 1439.1 1522.5 1420.8 1525.1C1420.3 1525.2 1417.8 1525.5 1417.3 1525.5C1415.8 1525.7 1414.3 1525.8 1412.8 1526C1409.3 1526.3 1405.7 1526.6 1402.1 1526.7C1394.9 1527 1387.8 1526.8 1380.6 1526C1380.1 1525.9 1379.8 1525.9 1379.7 1525.9C1379.5 1525.8 1379.1 1525.8 1378.4 1525.6C1376.8 1525.3 1375.2 1525 1373.5 1524.6C1369.8 1523.8 1366.2 1522.7 1362.6 1521.5C1361.8 1521.2 1360.9 1520.9 1360.1 1520.6C1358.4 1519.8 1356.7 1519 1355 1518.1C1351.9 1516.4 1348.8 1514.5 1346 1512.4C1346.3 1512.5 1343.2 1509.9 1342.4 1509.1C1340.7 1507.5 1339 1505.7 1337.5 1504C1335.1 1501.2 1333.1 1498.2 1330.6 1493.9C1324.9 1484 1321.8 1473.1 1319.4 1461.9C1317.7 1453.9 1308.2 1449.2 1300.7 1451.3C1292.3 1453.6 1288.4 1461.9 1290.1 1470C1294.8 1492.4 1304.1 1514.6 1320.9 1530.7C1334.2 1543.4 1351.4 1551.7 1369.5 1554.9C1406.3 1561.5 1450 1555.5 1482.4 1536.6C1505.1 1523.3 1523 1504 1535.2 1481C1571.2 1502.6 1615.6 1505.4 1656.4 1495C1691.7 1486 1723 1464.8 1735.6 1429.4C1743.7 1406.2 1741.9 1380.6 1737 1356.9Z" fill="#37094C"/>
</svg>
