<svg width="552" height="522" viewBox="0 0 552 522" fill="none" xmlns="http://www.w3.org/2000/svg">
<g clip-path="url(#clip0_13:5)">
<path d="M71.4859 265.703C41.3849 290.961 36.783 335.033 61.2071 364.14C81.1645 381.014 114.212 385.231 127.974 386.653C132.767 408.226 123.849 436.886 138.506 456.261C162.93 485.369 207.131 488.49 237.233 463.232C267.338 437.975 271.942 393.9 247.517 364.791L322.678 301.723L397.839 238.655C422.264 267.765 466.469 270.884 496.571 245.622C526.672 220.364 531.274 176.292 506.849 147.185C490.313 129.386 460.54 133.192 440.127 124.725C441.117 110.925 442.702 77.6477 429.551 55.0634C405.127 25.9559 360.925 22.8349 330.823 48.0926C300.718 73.3499 296.114 117.425 320.54 146.534L245.379 209.602L170.218 272.669C145.792 243.56 101.587 240.441 71.4859 265.703V265.703Z" fill="#F9F9F9"/>
<path d="M73.0791 272.935C39.9932 299.652 46.3499 364.314 91.8591 372.984C105.305 377.359 119.355 379.373 133.359 380.781C141.266 409.086 125.001 447.175 157.521 464.427C200.387 493.359 263.047 453.116 256.508 402.574C255.507 387.966 248.247 374.595 238.551 363.862C291.856 319.133 345.162 274.404 398.468 229.675C425.306 270.508 492.009 261.299 509.995 217.816C525.801 188.157 510.918 141.001 473.67 138.771C460.733 135.143 440.531 136.542 433.599 125.787C435.36 96.2444 436.346 55.3227 402.58 42.6949C356.306 20.4452 299.125 68.2529 313.026 117.782C318.393 136.879 339.353 150.647 312.394 161.824C264.788 201.77 217.182 241.716 169.576 281.662C147.411 249.821 100.315 246.491 73.0791 272.935Z" fill="#F2F2F2"/>
<path d="M55.4295 276.378C25.3285 301.636 20.7266 345.708 45.1507 374.816C65.1081 391.689 98.1556 395.906 111.918 397.328C116.711 418.901 107.793 447.561 122.449 466.937C146.874 496.044 191.075 499.165 221.177 473.908C251.282 448.65 255.886 404.575 231.46 375.466L306.621 312.398L381.782 249.331C406.208 278.44 450.413 281.559 480.514 256.298C510.615 231.039 515.217 186.967 490.793 157.86C474.257 140.061 444.483 143.867 424.071 135.401C425.06 121.601 426.646 88.323 413.494 65.7387C389.07 36.6312 344.869 33.5102 314.767 58.7679C284.662 84.0252 280.058 128.1 304.483 157.21L229.322 220.277L154.161 283.345C129.736 254.235 85.5308 251.116 55.4295 276.378V276.378Z" fill="black"/>
<path d="M62.1813 286.719C30.1887 309.525 38.2031 371.337 79.596 378.404C94.9433 381.983 112.362 384.319 126.08 390.794C125.165 418.3 119.885 456.74 149.093 472.465C191.257 495.822 251.091 446.822 231.051 401.086C220.575 388.947 213.61 365.496 232.655 357.735C283.42 316.829 330.953 269.769 385.278 235.278C412.714 280.445 494.523 257.979 494.372 205.211C498.602 173.534 464.724 148.21 435.154 153.227C412.624 147.73 407.038 121.406 412.63 102.2C410.904 64.7394 363.206 39.5793 332.494 61.9299C302.578 78.3061 290.011 123.444 314.734 149.723C321.234 172.898 292.342 180.308 280.603 193.794C238.23 229.449 197.179 267.448 151.005 297.773C131.494 269.759 87.4993 263.943 62.1813 286.719V286.719Z" fill="#FFFBEE"/>
<path d="M68.8262 297.372C42.0975 318.004 57.5154 370.295 93.2113 368.415C111.212 370.487 139.935 376.439 138.398 399.978C134.913 424.004 138.195 462.401 168.592 465.456C198.698 468.912 232.804 435.543 217.717 405.571C201.361 385.701 206.576 351.569 231.544 341.882C283.208 299.294 331.812 252.344 389.192 217.243C403.082 264.548 482.429 249.942 482.175 202.948C482.708 174.04 449.869 161.632 425.752 163.658C397.099 152.837 396.734 117.676 397.716 92.3837C386.671 62.1346 338.796 57.4372 323.698 86.6537C310.082 104.746 312.623 131.763 328.154 147.41C333.077 179.88 297.937 194.182 278.433 212.158C236.677 248.403 195.646 286.406 147.237 313.795C132.804 285.502 92.8329 276.018 68.8262 297.372Z" fill="#FFFBEE"/>
</g>
<defs>
<clipPath id="clip0_13:5">
<rect width="500" height="260" fill="white" transform="translate(0.926514 322.111) rotate(-40)"/>
</clipPath>
</defs>
</svg>
